[img]http://img822.imageshack.us/img822/9082/priesty.jpg[/img]
[code]
Priest 2011 R5 LiNE XviD - IMAGiNE

Ripper ...........: IMAGiNE                                     IMDB Rating.......:5.6/10  
Video Codec.......: XVID        Release Date......:02/06/11
Audio Codec.......:MP3          Theatre Date......:13/05/11
Audio Bitrate.....:128          Runtime.......:1h 23mn
Subtitles.........:NIL          Language..........:ENGLISH
Resolution...... 720 x 304      IMDb URL.......... http://www.imdb.com/title/tt0822847/

DETAILS:

Video
ID                               : 0
Format                           : MPEG-4 Visual
Format profile                   : Advanced Simple@L5
Format settings, BVOP            : 2
Format settings, QPel            : No
Format settings, GMC             : No warppoints
Format settings, Matrix          : Default (MPEG)
Muxing mode                      : Packed bitstream
Codec ID                         : XVID
Codec ID/Hint                    : XviD
Duration                         : 1h 23mn
Bit rate                         : 2 204 Kbps
Width                            : 720 pixels
Height                           : 304 pixels
Display aspect ratio             : 2.35:1
Frame rate                       : 25.000 fps
Color space                      : YUV
Chroma subsampling               : 4:2:0
Bit depth                        : 8 bits
Scan type                        : Progressive
Compression mode                 : Lossy
Bits/(Pixel*Frame)               : 0.403
Stream size                      : 1.29 GiB (94%)
Writing library                  : XviD 61

Audio
ID                               : 1
Format                           : MPEG Audio
Format version                   : Version 1
Format profile                   : Layer 3
Mode                             : Joint stereo
Codec ID                         : 55
Codec ID/Hint                    : MP3
Duration                         : 1h 23mn
Bit rate mode                    : Constant
Bit rate                         : 128 Kbps
Channel(s)                       : 2 channels
Sampling rate                    : 44.1 KHz
Compression mode                 : Lossy
Stream size                      : 76.7 MiB (5%)
Alignment                        : Split accross interleaves
Interleave, duration             : 40 ms (1.00 video frame)
Writing library                  : LAME3.98r

Plot:
A priest disobeys church law to track down the vampires who kidnapped his niece.

SOURCES:
VIDEO: ......... Pastyr.2011.DVD-5.ELEKTRI4KA Thanx 
AUDIO: ......... Thanx Matey 

NOTES:
IMAGiNE bringing you another release..........
Priest R5..........
Ok here we are with our take on Priest...
Source was nice so not much work was needed...
So we made a script to crop resize and so on...
Audio is new, very nice LiNE we synced and remuxed to our encode...
That pretty much sums it up so...

Enjoy Folks!
[/code]
Screens:
[img]http://img851.imageshack.us/img851/8683/32846061.jpg[/img]
[img]http://img707.imageshack.us/img707/7858/69252805.jpg[/img]
[img]http://img861.imageshack.us/img861/7918/78749693.jpg[/img]
[img]http://img860.imageshack.us/img860/1985/95515337.jpg[/img]
[img]http://img822.imageshack.us/img822/2346/79088059.jpg[/img]